<svg xmlns="http://www.w3.org/2000/svg" xmlns:xlink="http://www.w3.org/1999/xlink" preserveAspectRatio="xMidYMid" width="48" height="9" viewBox="0 0 48 9">
  <defs>
    <style>

      .cls-2 {
        fill: #959595;
      }
    </style>
  </defs>
  <path d="M47.370,1.290 C47.022,1.290 46.739,1.011 46.739,0.666 C46.739,0.321 47.022,0.042 47.370,0.042 C47.718,0.042 48.000,0.321 48.000,0.666 C48.000,1.011 47.718,1.290 47.370,1.290 ZM47.018,9.000 C47.018,9.000 43.249,9.000 43.249,9.000 C43.249,9.000 40.725,6.110 40.388,5.724 C40.047,6.108 37.485,9.000 37.485,9.000 C37.485,9.000 33.719,9.000 33.719,9.000 C33.719,9.000 37.714,4.525 37.986,4.220 C37.724,3.912 34.400,0.000 34.400,0.000 C34.400,0.000 37.932,0.000 37.932,0.000 C37.932,0.000 40.029,2.525 40.364,2.928 C40.703,2.528 42.843,0.000 42.843,0.000 C42.843,0.000 45.784,0.000 45.784,0.000 C45.784,0.000 46.336,0.000 46.336,0.000 C46.336,0.000 43.012,3.912 42.750,4.220 C43.022,4.525 47.018,9.000 47.018,9.000 ZM29.740,7.474 C29.449,7.474 24.268,7.474 23.977,7.474 C23.859,7.703 23.191,9.000 23.191,9.000 C23.191,9.000 20.138,9.000 20.138,9.000 C20.138,9.000 24.748,0.012 24.748,0.012 C24.748,0.012 28.811,0.012 28.811,0.012 C28.811,0.012 28.969,0.012 28.969,0.012 C28.969,0.012 33.574,9.000 33.574,9.000 C33.574,9.000 30.525,9.000 30.525,9.000 C30.525,9.000 29.858,7.703 29.740,7.474 ZM27.006,2.047 C26.893,2.047 26.824,2.047 26.710,2.047 C26.591,2.281 25.263,4.877 24.965,5.460 C25.588,5.460 28.129,5.460 28.752,5.460 C28.454,4.877 27.126,2.281 27.006,2.047 ZM17.059,2.492 C16.851,2.492 16.683,2.492 16.535,2.492 C16.400,2.765 13.325,9.000 13.325,9.000 C13.325,9.000 11.201,9.000 11.201,9.000 C11.201,9.000 8.127,2.765 7.992,2.492 C7.843,2.492 7.676,2.492 7.467,2.492 C7.467,2.962 7.467,9.000 7.467,9.000 C7.467,9.000 4.900,9.000 4.900,9.000 C4.900,9.000 4.900,0.012 4.900,0.012 C4.900,0.012 9.508,0.012 9.508,0.012 C9.508,0.012 11.879,4.636 12.268,5.395 C12.656,4.636 15.018,0.012 15.018,0.012 C15.018,0.012 19.627,0.012 19.627,0.012 C19.627,0.012 19.627,9.000 19.627,9.000 C19.627,9.000 17.059,9.000 17.059,9.000 C17.059,9.000 17.059,2.962 17.059,2.492 ZM-0.000,0.012 C-0.000,0.012 2.889,0.012 2.889,0.012 C2.889,0.012 2.889,9.000 2.889,9.000 C2.889,9.000 -0.000,9.000 -0.000,9.000 C-0.000,9.000 -0.000,0.012 -0.000,0.012 Z" id="path-1" class="cls-2" fill-rule="evenodd"/>
</svg>
