<?xml version="1.0" encoding="utf-8"?>
<!-- Generator: Adobe Illustrator 19.1.0, SVG Export Plug-In . SVG Version: 6.00 Build 0)  -->
<svg version="1.1" id="Layer_1" xmlns="http://www.w3.org/2000/svg" xmlns:xlink="http://www.w3.org/1999/xlink" x="0px" y="0px"
	 viewBox="820 40 100 100" style="enable-background:new 820 40 100 100;" xml:space="preserve">
<style type="text/css">
	.st0{fill:#070752;stroke:#070752;stroke-width:0.3;stroke-miterlimit:10;}
	.st1{fill:#070752;}
	.st2{fill:#FFFFFF;}
</style>
<g>
	<g>
		<path class="st0" d="M832.3,99.1c0,0.8,0,0.8,0.8,0.8h6.1c0.6,0,0.8,0.2,0.8,0.8v0.9c0,0.6-0.2,0.8-0.8,0.8h-8.7
			c-0.6,0-0.8-0.2-0.8-0.8v-5.2c0-3.3,2.3-5.8,4.2-8.5c1.3-1.7,3.3-3.8,3.3-6.7c-0.1-1.5-0.4-3.2-2.5-3.2c-2.4,0-2.3,2.5-2.5,4.1
			c0,0.6-0.2,0.8-0.8,0.8h-1.1c-0.6,0-0.8-0.2-0.8-0.8c0-3,0.8-6.5,5.1-6.5c4.2,0,4.9,3.3,5,5.7c0.2,3.3-2.2,6.2-4.1,8.8
			c-1.8,2.4-3.4,4.2-3.4,6.8V99.1z"/>
		<path class="st0" d="M850.1,102.3h-5.5c-0.6,0-0.8-0.2-0.8-0.8V76.5c0-0.6,0.2-0.8,0.8-0.8h5.5c3.2,0,5.7,1.8,5.7,6.5v13.7
			C855.8,100.5,853.3,102.3,850.1,102.3z M846.5,99.1c0,0.8,0,0.8,0.8,0.8h2.9c2.1,0,3.1-1.3,3.1-4.7V82.8c0-3.4-1-4.7-3.1-4.7h-2.9
			c-0.8,0-0.8,0-0.8,0.8V99.1z"/>
	</g>
	<g>
		<path class="st1" d="M863.3,111.8h-41.8c-0.8,0-1.5-0.7-1.5-1.5V68.5c0-0.8,0.7-1.5,1.5-1.5h41.8c0.8,0,1.5,0.7,1.5,1.5
			s-0.7,1.5-1.5,1.5H823v38.8h40.3c0.8,0,1.5,0.7,1.5,1.5S864.1,111.8,863.3,111.8z"/>
	</g>
	<g>
		<g>
			<path class="st2" d="M896.3,119c-0.1,0-0.2,0-0.3,0l-33-7c-0.7-0.1-1.2-0.8-1.2-1.5v-42c0-0.7,0.5-1.3,1.2-1.5l33-6
				c0.4-0.1,0.9,0,1.2,0.3c0.3,0.3,0.5,0.7,0.5,1.2v54.9c0,0.5-0.2,0.9-0.6,1.2C896.9,118.9,896.6,119,896.3,119z M864.8,109.3
				l30,6.4V64.3l-30,5.5V109.3z"/>
		</g>
		<g>
			<path class="st2" d="M896.3,119c-0.6,0-1.2-0.4-1.4-1c-0.3-0.8,0.1-1.6,0.9-1.9l21.3-7.6V69.7L895.9,64c-0.8-0.2-1.3-1-1.1-1.8
				c0.2-0.8,1-1.3,1.8-1.1l22.2,6c0.7,0.2,1.1,0.8,1.1,1.4v41c0,0.6-0.4,1.2-1,1.4l-22.2,8C896.6,118.9,896.4,119,896.3,119z"/>
		</g>
	</g>
</g>
</svg>
