<?xml version="1.0" encoding="utf-8"?>
<!-- Generator: Adobe Illustrator 19.1.0, SVG Export Plug-In . SVG Version: 6.00 Build 0)  -->
<svg version="1.1" id="Layer_1" xmlns="http://www.w3.org/2000/svg" xmlns:xlink="http://www.w3.org/1999/xlink" x="0px" y="0px"
	 viewBox="820 40 100 100" style="enable-background:new 820 40 100 100;" xml:space="preserve">
<style type="text/css">
	.st0{fill:#070752;}
	.st1{fill:#FFFFFF;}
</style>
<g>
	<g>
		<g>
			<path class="st0" d="M869.4,115.9h-5.3c-0.8,0-1.4-0.6-1.4-1.4s0.6-1.4,1.4-1.4h5.3c0.8,0,1.4,0.6,1.4,1.4
				S870.1,115.9,869.4,115.9z"/>
		</g>
		<g>
			<path class="st0" d="M876.4,111.2h-5.3c-0.8,0-1.4-0.6-1.4-1.4s0.6-1.4,1.4-1.4h5.3c0.8,0,1.4,0.6,1.4,1.4
				S877.2,111.2,876.4,111.2z"/>
		</g>
		<g>
			<path class="st0" d="M883.5,106.5h-5.3c-0.8,0-1.4-0.6-1.4-1.4c0-0.8,0.6-1.4,1.4-1.4h5.3c0.8,0,1.4,0.6,1.4,1.4
				C884.8,105.9,884.2,106.5,883.5,106.5z"/>
		</g>
		<g>
			<path class="st0" d="M890.5,101.8h-5.3c-0.8,0-1.4-0.6-1.4-1.4s0.6-1.4,1.4-1.4h5.3c0.8,0,1.4,0.6,1.4,1.4
				S891.2,101.8,890.5,101.8z"/>
		</g>
		<g>
			<path d="M898.5,97.1h-6.2c-0.8,0-1.4-0.6-1.4-1.4s0.6-1.4,1.4-1.4h6.2c0.8,0,1.4,0.6,1.4,1.4S899.3,97.1,898.5,97.1z"/>
		</g>
		<g>
			<path class="st0" d="M904.6,92.3h-5.3c-0.8,0-1.4-0.6-1.4-1.4s0.6-1.4,1.4-1.4h5.3c0.8,0,1.4,0.6,1.4,1.4S905.3,92.3,904.6,92.3z
				"/>
		</g>
		<g>
			<path class="st0" d="M911.6,87.6h-5.3c-0.8,0-1.4-0.6-1.4-1.4c0-0.8,0.6-1.4,1.4-1.4h5.3c0.8,0,1.4,0.6,1.4,1.4
				C913,87,912.4,87.6,911.6,87.6z"/>
		</g>
		<g>
			<path class="st0" d="M918.6,82.9h-5.3c-0.8,0-1.4-0.6-1.4-1.4s0.6-1.4,1.4-1.4h5.3c0.8,0,1.4,0.6,1.4,1.4S919.4,82.9,918.6,82.9z
				"/>
		</g>
	</g>
	<g>
		<path class="st0" d="M821.4,121c-0.2,0-0.4,0-0.5-0.1c-0.5-0.2-0.8-0.7-0.8-1.2V60.4c0-0.6,0.3-1,0.8-1.3c0.5-0.2,1.1-0.1,1.5,0.3
			c15.5,15.5,34.8,16.7,34.9,16.8c0.7,0,1.3,0.6,1.3,1.4v26.8c0,0.8-0.6,1.4-1.4,1.4c-18.4,0-34.8,14.7-34.9,14.8
			C822,120.8,821.7,121,821.4,121z M822.7,63.6v53.1c5.1-4,18.1-13.1,33.1-13.6V78.8C851.4,78.3,836.2,75.7,822.7,63.6z"/>
	</g>
	<g>
		<g>
			<line class="st1" x1="821.4" y1="60.7" x2="893.3" y2="91.5"/>
		</g>
		<g>
			<g>
				<path class="st1" d="M822.2,62c-0.1,0-0.2,0-0.4-0.1l-0.9-0.4c-0.5-0.2-0.7-0.7-0.5-1.2c0.2-0.5,0.7-0.7,1.2-0.5l0.9,0.4
					c0.5,0.2,0.7,0.7,0.5,1.2C822.9,61.8,822.6,62,822.2,62z"/>
			</g>
			<g>
				<path class="st1" d="M889,90.6c-0.1,0-0.2,0-0.4-0.1l-1.7-0.7c-0.5-0.2-0.7-0.7-0.5-1.2c0.2-0.5,0.7-0.7,1.2-0.5l1.7,0.7
					c0.5,0.2,0.7,0.7,0.5,1.2C889.7,90.4,889.4,90.6,889,90.6z M883.9,88.4c-0.1,0-0.2,0-0.4-0.1l-1.7-0.7c-0.5-0.2-0.7-0.7-0.5-1.2
					c0.2-0.5,0.7-0.7,1.2-0.5l1.7,0.7c0.5,0.2,0.7,0.7,0.5,1.2C884.6,88.2,884.2,88.4,883.9,88.4z M878.7,86.2c-0.1,0-0.2,0-0.4-0.1
					l-1.7-0.7c-0.5-0.2-0.7-0.7-0.5-1.2c0.2-0.5,0.7-0.7,1.2-0.5l1.7,0.7c0.5,0.2,0.7,0.7,0.5,1.2C879.4,86,879.1,86.2,878.7,86.2z
					 M873.6,84c-0.1,0-0.2,0-0.4-0.1l-1.7-0.7c-0.5-0.2-0.7-0.7-0.5-1.2c0.2-0.5,0.7-0.7,1.2-0.5l1.7,0.7c0.5,0.2,0.7,0.7,0.5,1.2
					C874.3,83.8,873.9,84,873.6,84z M868.5,81.8c-0.1,0-0.2,0-0.4-0.1l-1.7-0.7c-0.5-0.2-0.7-0.7-0.5-1.2c0.2-0.5,0.7-0.7,1.2-0.5
					l1.7,0.7c0.5,0.2,0.7,0.7,0.5,1.2C869.1,81.6,868.8,81.8,868.5,81.8z M863.3,79.6c-0.1,0-0.2,0-0.4-0.1l-1.7-0.7
					c-0.5-0.2-0.7-0.7-0.5-1.2c0.2-0.5,0.7-0.7,1.2-0.5l1.7,0.7c0.5,0.2,0.7,0.7,0.5,1.2C864,79.4,863.7,79.6,863.3,79.6z
					 M858.2,77.4c-0.1,0-0.2,0-0.4-0.1l-1.7-0.7c-0.5-0.2-0.7-0.7-0.5-1.2c0.2-0.5,0.7-0.7,1.2-0.5l1.7,0.7c0.5,0.2,0.7,0.7,0.5,1.2
					C858.9,77.2,858.5,77.4,858.2,77.4z M853.1,75.2c-0.1,0-0.2,0-0.4-0.1l-1.7-0.7c-0.5-0.2-0.7-0.7-0.5-1.2
					c0.2-0.5,0.7-0.7,1.2-0.5l1.7,0.7c0.5,0.2,0.7,0.7,0.5,1.2C853.7,75,853.4,75.2,853.1,75.2z M847.9,73c-0.1,0-0.2,0-0.4-0.1
					l-1.7-0.7c-0.5-0.2-0.7-0.7-0.5-1.2c0.2-0.5,0.7-0.7,1.2-0.5l1.7,0.7c0.5,0.2,0.7,0.7,0.5,1.2C848.6,72.8,848.3,73,847.9,73z
					 M842.8,70.8c-0.1,0-0.2,0-0.4-0.1l-1.7-0.7c-0.5-0.2-0.7-0.7-0.5-1.2c0.2-0.5,0.7-0.7,1.2-0.5l1.7,0.7c0.5,0.2,0.7,0.7,0.5,1.2
					C843.5,70.6,843.1,70.8,842.8,70.8z M837.6,68.6c-0.1,0-0.2,0-0.4-0.1l-1.7-0.7c-0.5-0.2-0.7-0.7-0.5-1.2
					c0.2-0.5,0.7-0.7,1.2-0.5l1.7,0.7c0.5,0.2,0.7,0.7,0.5,1.2C838.3,68.4,838,68.6,837.6,68.6z M832.5,66.4c-0.1,0-0.2,0-0.4-0.1
					l-1.7-0.7c-0.5-0.2-0.7-0.7-0.5-1.2c0.2-0.5,0.7-0.7,1.2-0.5l1.7,0.7c0.5,0.2,0.7,0.7,0.5,1.2C833.2,66.2,832.9,66.4,832.5,66.4
					z M827.4,64.2c-0.1,0-0.2,0-0.4-0.1l-1.7-0.7c-0.5-0.2-0.7-0.7-0.5-1.2c0.2-0.5,0.7-0.7,1.2-0.5l1.7,0.7
					c0.5,0.2,0.7,0.7,0.5,1.2C828.1,64,827.7,64.2,827.4,64.2z"/>
			</g>
			<g>
				<path class="st1" d="M893.3,92.4c-0.1,0-0.2,0-0.4-0.1l-0.9-0.4c-0.5-0.2-0.7-0.7-0.5-1.2c0.2-0.5,0.7-0.7,1.2-0.5l0.9,0.4
					c0.5,0.2,0.7,0.7,0.5,1.2C894,92.2,893.7,92.4,893.3,92.4z"/>
			</g>
		</g>
	</g>
	<g>
		<g>
			<line class="st1" x1="893" y1="92.6" x2="821.4" y2="119.6"/>
		</g>
		<g>
			<g>
				<path class="st1" d="M892.1,93.8c-0.4,0-0.7-0.2-0.8-0.6c-0.2-0.5,0.1-1,0.5-1.2l0.9-0.3c0.5-0.2,1,0.1,1.2,0.5
					c0.2,0.5-0.1,1-0.5,1.2l-0.9,0.3C892.3,93.8,892.2,93.8,892.1,93.8z"/>
			</g>
			<g>
				<path class="st1" d="M825.9,118.8c-0.4,0-0.7-0.2-0.8-0.6c-0.2-0.5,0.1-1,0.5-1.2l1.8-0.7c0.5-0.2,1,0.1,1.2,0.5s-0.1,1-0.5,1.2
					l-1.8,0.7C826.1,118.8,826,118.8,825.9,118.8z M831.5,116.7c-0.4,0-0.7-0.2-0.8-0.6c-0.2-0.5,0.1-1,0.5-1.2l1.8-0.7
					c0.5-0.2,1,0.1,1.2,0.5c0.2,0.5-0.1,1-0.5,1.2l-1.8,0.7C831.7,116.7,831.6,116.7,831.5,116.7z M837,114.6
					c-0.4,0-0.7-0.2-0.8-0.6c-0.2-0.5,0.1-1,0.5-1.2l1.8-0.7c0.5-0.2,1,0.1,1.2,0.5c0.2,0.5-0.1,1-0.5,1.2l-1.8,0.7
					C837.2,114.6,837.1,114.6,837,114.6z M842.5,112.5c-0.4,0-0.7-0.2-0.8-0.6c-0.2-0.5,0.1-1,0.5-1.2l1.8-0.7
					c0.5-0.2,1,0.1,1.2,0.5c0.2,0.5-0.1,1-0.5,1.2l-1.8,0.7C842.7,112.5,842.6,112.5,842.5,112.5z M848,110.5
					c-0.4,0-0.7-0.2-0.8-0.6c-0.2-0.5,0.1-1,0.5-1.2l1.8-0.7c0.5-0.2,1,0.1,1.2,0.5c0.2,0.5-0.1,1-0.5,1.2l-1.8,0.7
					C848.2,110.4,848.1,110.5,848,110.5z M853.5,108.4c-0.4,0-0.7-0.2-0.8-0.6c-0.2-0.5,0.1-1,0.5-1.2l1.8-0.7
					c0.5-0.2,1,0.1,1.2,0.5s-0.1,1-0.5,1.2l-1.8,0.7C853.7,108.4,853.6,108.4,853.5,108.4z M859,106.3c-0.4,0-0.7-0.2-0.8-0.6
					c-0.2-0.5,0.1-1,0.5-1.2l1.8-0.7c0.5-0.2,1,0.1,1.2,0.5c0.2,0.5-0.1,1-0.5,1.2l-1.8,0.7C859.2,106.3,859.1,106.3,859,106.3z
					 M864.5,104.2c-0.4,0-0.7-0.2-0.8-0.6c-0.2-0.5,0.1-1,0.5-1.2l1.8-0.7c0.5-0.2,1,0.1,1.2,0.5c0.2,0.5-0.1,1-0.5,1.2l-1.8,0.7
					C864.8,104.2,864.7,104.2,864.5,104.2z M870.1,102.1c-0.4,0-0.7-0.2-0.8-0.6c-0.2-0.5,0.1-1,0.5-1.2l1.8-0.7
					c0.5-0.2,1,0.1,1.2,0.5c0.2,0.5-0.1,1-0.5,1.2l-1.8,0.7C870.3,102.1,870.2,102.1,870.1,102.1z M875.6,100.1
					c-0.4,0-0.7-0.2-0.8-0.6c-0.2-0.5,0.1-1,0.5-1.2l1.8-0.7c0.5-0.2,1,0.1,1.2,0.5c0.2,0.5-0.1,1-0.5,1.2l-1.8,0.7
					C875.8,100,875.7,100.1,875.6,100.1z M881.1,98c-0.4,0-0.7-0.2-0.8-0.6c-0.2-0.5,0.1-1,0.5-1.2l1.8-0.7c0.5-0.2,1,0.1,1.2,0.5
					c0.2,0.5-0.1,1-0.5,1.2l-1.8,0.7C881.3,98,881.2,98,881.1,98z M886.6,95.9c-0.4,0-0.7-0.2-0.8-0.6c-0.2-0.5,0.1-1,0.5-1.2
					l1.8-0.7c0.5-0.2,1,0.1,1.2,0.5c0.2,0.5-0.1,1-0.5,1.2l-1.8,0.7C886.8,95.9,886.7,95.9,886.6,95.9z"/>
			</g>
			<g>
				<path class="st1" d="M821.4,120.5c-0.4,0-0.7-0.2-0.8-0.6c-0.2-0.5,0.1-1,0.5-1.2l0.9-0.3c0.5-0.2,1,0.1,1.2,0.5s-0.1,1-0.5,1.2
					l-0.9,0.3C821.6,120.5,821.5,120.5,821.4,120.5z"/>
			</g>
		</g>
	</g>
	<g>
		<circle class="st1" cx="893.5" cy="90.6" r="9"/>
	</g>
</g>
</svg>
