<?xml version="1.0" encoding="utf-8"?>
<!-- Generator: Adobe Illustrator 19.1.0, SVG Export Plug-In . SVG Version: 6.00 Build 0)  -->
<svg version="1.1" id="Layer_1" xmlns="http://www.w3.org/2000/svg" xmlns:xlink="http://www.w3.org/1999/xlink" x="0px" y="0px"
	 viewBox="820 40 100 100" style="enable-background:new 820 40 100 100;" xml:space="preserve">
<style type="text/css">
	.st0{fill:#070752;}
	.st1{fill:#FFFFFF;}
</style>
<g>
	<g>
		<path class="st0" d="M870.6,86.6h-8.5v-2.9h7V71.6h-35.3v7.3h-2.9v-8.8c0-0.8,0.7-1.5,1.5-1.5h38.2c0.8,0,1.5,0.7,1.5,1.5v15
			C872.1,85.9,871.4,86.6,870.6,86.6z"/>
	</g>
	<g>
		<path class="st0" d="M860.8,117.9h-37.5c-0.8,0-1.5-0.7-1.5-1.5v-12c0-0.8,0.7-1.5,1.5-1.5c0.8,0,1.5,0.7,1.5,1.5V115h34.6v-12.7
			h-36.1c-0.8,0-1.5-0.7-1.5-1.5s0.7-1.5,1.5-1.5h37.5c0.8,0,1.5,0.7,1.5,1.5v15.7C862.3,117.3,861.6,117.9,860.8,117.9z"/>
	</g>
	<g>
		<path class="st0" d="M884.6,86c-0.2,0-0.4,0-0.5-0.1l-10-3.9c-0.8-0.3-1.1-1.2-0.8-1.9c0.3-0.8,1.2-1.1,1.9-0.8l8,3.1v-9.5l-8,3.1
			c-0.8,0.3-1.6-0.1-1.9-0.8c-0.3-0.8,0.1-1.6,0.8-1.9l10-3.9c0.4-0.2,1-0.1,1.4,0.2c0.4,0.3,0.6,0.7,0.6,1.2v13.9
			c0,0.5-0.2,0.9-0.6,1.2C885.1,85.9,884.9,86,884.6,86z"/>
	</g>
	<g>
		<path class="st0" d="M874.6,117c-0.2,0-0.4,0-0.5-0.1l-10-3.9c-0.8-0.3-1.1-1.2-0.8-1.9c0.3-0.8,1.1-1.1,1.9-0.8l8,3.1v-9.5
			l-8,3.1c-0.8,0.3-1.6-0.1-1.9-0.8c-0.3-0.8,0.1-1.6,0.8-1.9l10-3.9c0.4-0.2,1-0.1,1.4,0.2c0.4,0.3,0.6,0.7,0.6,1.2v13.9
			c0,0.5-0.2,0.9-0.6,1.2C875.2,116.9,874.9,117,874.6,117z"/>
	</g>
	<g>
		<rect x="831.3" y="119.1" class="st0" width="20.2" height="2.9"/>
	</g>
	<g>
		<path class="st0" d="M841.3,134.8c-0.8,0-1.5-0.7-1.5-1.5l0-11.9c0-0.8,0.7-1.5,1.5-1.5c0.8,0,1.5,0.7,1.5,1.5l0,11.9
			C842.8,134.2,842.1,134.8,841.3,134.8z"/>
	</g>
	<g>
		<path class="st0" d="M851.5,134.8c-0.5,0-1-0.3-1.3-0.7l-6.9-12.2c-0.4-0.7-0.1-1.6,0.6-2c0.7-0.4,1.6-0.1,2,0.6l6.9,12.2
			c0.4,0.7,0.1,1.6-0.6,2C852,134.7,851.8,134.8,851.5,134.8z"/>
	</g>
	<g>
		<path class="st0" d="M831.2,134.8c-0.2,0-0.5-0.1-0.7-0.2c-0.7-0.4-1-1.3-0.6-2l6.9-12.2c0.4-0.7,1.3-1,2-0.6c0.7,0.4,1,1.3,0.6,2
			l-6.9,12.2C832.2,134.5,831.7,134.8,831.2,134.8z"/>
	</g>
	<g>
		<g>
			<path class="st0" d="M848.6,98.6c-6.7,0-12.1-5.4-12.1-12.1s5.4-12.1,12.1-12.1c6.7,0,12.1,5.4,12.1,12.1S855.3,98.6,848.6,98.6z
				 M848.6,77.3c-5.1,0-9.2,4.1-9.2,9.2s4.1,9.2,9.2,9.2c5.1,0,9.2-4.1,9.2-9.2S853.7,77.3,848.6,77.3z"/>
		</g>
		<g>
			<path class="st0" d="M848.6,93.3c-3.8,0-6.8-3.1-6.8-6.8s3.1-6.8,6.8-6.8c3.8,0,6.8,3.1,6.8,6.8S852.4,93.3,848.6,93.3z
				 M848.6,82.6c-2.1,0-3.9,1.7-3.9,3.9s1.7,3.9,3.9,3.9c2.1,0,3.9-1.7,3.9-3.9S850.7,82.6,848.6,82.6z"/>
		</g>
	</g>
	<g>
		<path class="st0" d="M829.3,98.6c-5.2,0-9.3-4.2-9.3-9.3c0-5.2,4.2-9.3,9.3-9.3c5.2,0,9.3,4.2,9.3,9.3
			C838.7,94.5,834.5,98.6,829.3,98.6z M829.3,82.9c-3.5,0-6.4,2.9-6.4,6.4c0,3.5,2.9,6.4,6.4,6.4c3.5,0,6.4-2.9,6.4-6.4
			C835.8,85.8,832.9,82.9,829.3,82.9z"/>
	</g>
	<g>
		<path class="st0" d="M829.3,93.7c-2.5,0-4.4-2-4.4-4.4c0-2.5,2-4.4,4.4-4.4c2.5,0,4.4,2,4.4,4.4C833.8,91.8,831.8,93.7,829.3,93.7
			z M829.3,87.8c-0.8,0-1.5,0.7-1.5,1.5c0,0.8,0.7,1.5,1.5,1.5c0.8,0,1.5-0.7,1.5-1.5C830.9,88.5,830.2,87.8,829.3,87.8z"/>
	</g>
	<g>
		<g>
			<path class="st0" d="M858.5,68c-6.7,0-12.1-5.4-12.1-12.1s5.4-12.1,12.1-12.1c6.7,0,12.1,5.4,12.1,12.1S865.2,68,858.5,68z
				 M858.5,46.7c-5.1,0-9.2,4.1-9.2,9.2s4.1,9.2,9.2,9.2c5.1,0,9.2-4.1,9.2-9.2S863.5,46.7,858.5,46.7z"/>
		</g>
		<g>
			<path class="st0" d="M858.5,62.7c-3.8,0-6.8-3.1-6.8-6.8s3.1-6.8,6.8-6.8c3.8,0,6.8,3.1,6.8,6.8S862.2,62.7,858.5,62.7z
				 M858.5,52c-2.1,0-3.9,1.7-3.9,3.9c0,2.1,1.7,3.9,3.9,3.9c2.1,0,3.9-1.7,3.9-3.9C862.3,53.7,860.6,52,858.5,52z"/>
		</g>
	</g>
	<g>
		<path class="st0" d="M839.2,68c-5.2,0-9.3-4.2-9.3-9.3s4.2-9.3,9.3-9.3c5.2,0,9.3,4.2,9.3,9.3S844.4,68,839.2,68z M839.2,52.2
			c-3.5,0-6.4,2.9-6.4,6.4c0,3.5,2.9,6.4,6.4,6.4c3.5,0,6.4-2.9,6.4-6.4C845.6,55.1,842.7,52.2,839.2,52.2z"/>
	</g>
	<g>
		<path class="st0" d="M839.2,63.1c-2.5,0-4.4-2-4.4-4.4c0-2.5,2-4.4,4.4-4.4s4.4,2,4.4,4.4C843.7,61.1,841.7,63.1,839.2,63.1z
			 M839.2,57.1c-0.8,0-1.5,0.7-1.5,1.5c0,0.8,0.7,1.5,1.5,1.5s1.5-0.7,1.5-1.5C840.7,57.8,840,57.1,839.2,57.1z"/>
	</g>
	<g>
		<path class="st0" d="M918.5,136.3c-0.8,0-1.5-0.7-1.5-1.5V54.7c0-0.8,0.7-1.5,1.5-1.5s1.5,0.7,1.5,1.5v80.1
			C920,135.6,919.3,136.3,918.5,136.3z"/>
	</g>
	<g>
		<line class="st1" x1="888.5" y1="70" x2="915.5" y2="58.5"/>
		<path class="st1" d="M888.5,70.9c-0.4,0-0.7-0.2-0.9-0.6c-0.2-0.5,0-1.1,0.5-1.3l2.7-1.1c0.5-0.2,1.1,0,1.3,0.5
			c0.2,0.5,0,1.1-0.5,1.3l-2.7,1.1C888.8,70.9,888.7,70.9,888.5,70.9z M894.8,68.3c-0.4,0-0.7-0.2-0.9-0.6c-0.2-0.5,0-1.1,0.5-1.3
			l2.7-1.1c0.5-0.2,1.1,0,1.3,0.5c0.2,0.5,0,1.1-0.5,1.3l-2.7,1.1C895.1,68.2,895,68.3,894.8,68.3z M901.2,65.6
			c-0.4,0-0.7-0.2-0.9-0.6c-0.2-0.5,0-1.1,0.5-1.3l2.7-1.1c0.5-0.2,1.1,0,1.3,0.5c0.2,0.5,0,1.1-0.5,1.3l-2.7,1.1
			C901.4,65.6,901.3,65.6,901.2,65.6z M907.5,62.9c-0.4,0-0.7-0.2-0.9-0.6c-0.2-0.5,0-1.1,0.5-1.3l2.7-1.1c0.5-0.2,1.1,0,1.3,0.5
			c0.2,0.5,0,1.1-0.5,1.3l-2.7,1.1C907.7,62.9,907.6,62.9,907.5,62.9z M913.8,60.2c-0.4,0-0.7-0.2-0.9-0.6c-0.2-0.5,0-1.1,0.5-1.3
			l1.7-0.7c0.5-0.2,1.1,0,1.3,0.5c0.2,0.5,0,1.1-0.5,1.3l-1.7,0.7C914,60.2,913.9,60.2,913.8,60.2z"/>
	</g>
	<g>
		<line class="st1" x1="888.5" y1="85.1" x2="915.5" y2="96.6"/>
		<path class="st1" d="M915.5,97.5c-0.1,0-0.3,0-0.4-0.1l-1.7-0.7c-0.5-0.2-0.7-0.8-0.5-1.3c0.2-0.5,0.8-0.7,1.3-0.5l1.7,0.7
			c0.5,0.2,0.7,0.8,0.5,1.3C916.2,97.3,915.9,97.5,915.5,97.5z M910.2,95.3c-0.1,0-0.3,0-0.4-0.1l-2.7-1.1c-0.5-0.2-0.7-0.8-0.5-1.3
			c0.2-0.5,0.8-0.7,1.3-0.5l2.7,1.1c0.5,0.2,0.7,0.8,0.5,1.3C910.9,95.1,910.6,95.3,910.2,95.3z M903.9,92.6c-0.1,0-0.3,0-0.4-0.1
			l-2.7-1.1c-0.5-0.2-0.7-0.8-0.5-1.3c0.2-0.5,0.8-0.7,1.3-0.5l2.7,1.1c0.5,0.2,0.7,0.8,0.5,1.3C904.6,92.4,904.2,92.6,903.9,92.6z
			 M897.5,89.9c-0.1,0-0.3,0-0.4-0.1l-2.7-1.1c-0.5-0.2-0.7-0.8-0.5-1.3c0.2-0.5,0.8-0.7,1.3-0.5l2.7,1.1c0.5,0.2,0.7,0.8,0.5,1.3
			C898.3,89.7,897.9,89.9,897.5,89.9z M891.2,87.3c-0.1,0-0.3,0-0.4-0.1l-2.7-1.1c-0.5-0.2-0.7-0.8-0.5-1.3c0.2-0.5,0.8-0.7,1.3-0.5
			l2.7,1.1c0.5,0.2,0.7,0.8,0.5,1.3C892,87,891.6,87.3,891.2,87.3z"/>
	</g>
	<g>
		<line class="st1" x1="881.4" y1="101" x2="915.5" y2="85.1"/>
		<path class="st1" d="M881.4,102c-0.4,0-0.7-0.2-0.9-0.6c-0.2-0.5,0-1.1,0.5-1.3l2.7-1.2c0.5-0.2,1.1,0,1.3,0.5
			c0.2,0.5,0,1.1-0.5,1.3l-2.7,1.2C881.7,102,881.6,102,881.4,102z M887.6,99.1c-0.4,0-0.7-0.2-0.9-0.6c-0.2-0.5,0-1.1,0.5-1.3
			l2.7-1.2c0.5-0.2,1.1,0,1.3,0.5c0.2,0.5,0,1.1-0.5,1.3l-2.7,1.2C887.9,99.1,887.8,99.1,887.6,99.1z M893.9,96.2
			c-0.4,0-0.7-0.2-0.9-0.6c-0.2-0.5,0-1.1,0.5-1.3l2.7-1.2c0.5-0.2,1.1,0,1.3,0.5c0.2,0.5,0,1.1-0.5,1.3l-2.7,1.2
			C894.1,96.2,894,96.2,893.9,96.2z M900.1,93.3c-0.4,0-0.7-0.2-0.9-0.6c-0.2-0.5,0-1.1,0.5-1.3l2.7-1.2c0.5-0.2,1.1,0,1.3,0.5
			c0.2,0.5,0,1.1-0.5,1.3l-2.7,1.2C900.4,93.3,900.2,93.3,900.1,93.3z M906.3,90.4c-0.4,0-0.7-0.2-0.9-0.6c-0.2-0.5,0-1.1,0.5-1.3
			l2.7-1.2c0.5-0.2,1.1,0,1.3,0.5c0.2,0.5,0,1.1-0.5,1.3l-2.7,1.2C906.6,90.4,906.4,90.4,906.3,90.4z M912.5,87.5
			c-0.4,0-0.7-0.2-0.9-0.6c-0.2-0.5,0-1.1,0.5-1.3l2.7-1.2c0.5-0.2,1.1,0,1.3,0.5c0.2,0.5,0,1.1-0.5,1.3l-2.7,1.2
			C912.8,87.5,912.6,87.5,912.5,87.5z"/>
	</g>
	<g>
		<line class="st1" x1="881.4" y1="116.2" x2="915.5" y2="131.4"/>
		<path class="st1" d="M915.4,132.3c-0.1,0-0.3,0-0.4-0.1l-2.7-1.2c-0.5-0.2-0.7-0.8-0.5-1.3c0.2-0.5,0.8-0.7,1.3-0.5l2.7,1.2
			c0.5,0.2,0.7,0.8,0.5,1.3C916.2,132.1,915.8,132.3,915.4,132.3z M909.2,129.5c-0.1,0-0.3,0-0.4-0.1l-2.7-1.2
			c-0.5-0.2-0.7-0.8-0.5-1.3c0.2-0.5,0.8-0.7,1.3-0.5l2.7,1.2c0.5,0.2,0.7,0.8,0.5,1.3C909.9,129.3,909.5,129.5,909.2,129.5z
			 M902.9,126.8c-0.1,0-0.3,0-0.4-0.1l-2.7-1.2c-0.5-0.2-0.7-0.8-0.5-1.3c0.2-0.5,0.8-0.7,1.3-0.5l2.7,1.2c0.5,0.2,0.7,0.8,0.5,1.3
			C903.6,126.5,903.3,126.8,902.9,126.8z M896.6,124c-0.1,0-0.3,0-0.4-0.1l-2.7-1.2c-0.5-0.2-0.7-0.8-0.5-1.3
			c0.2-0.5,0.8-0.7,1.3-0.5l2.7,1.2c0.5,0.2,0.7,0.8,0.5,1.3C897.4,123.7,897,124,896.6,124z M890.4,121.2c-0.1,0-0.3,0-0.4-0.1
			l-2.7-1.2c-0.5-0.2-0.7-0.8-0.5-1.3c0.2-0.5,0.8-0.7,1.3-0.5l2.7,1.2c0.5,0.2,0.7,0.8,0.5,1.3
			C891.1,120.9,890.8,121.2,890.4,121.2z M884.1,118.4c-0.1,0-0.3,0-0.4-0.1l-2.7-1.2c-0.5-0.2-0.7-0.8-0.5-1.3
			c0.2-0.5,0.8-0.7,1.3-0.5l2.7,1.2c0.5,0.2,0.7,0.8,0.5,1.3C884.8,118.2,884.5,118.4,884.1,118.4z"/>
	</g>
</g>
</svg>
