<svg xmlns="http://www.w3.org/2000/svg" xmlns:xlink="http://www.w3.org/1999/xlink" preserveAspectRatio="xMidYMid" width="160" height="29.938" viewBox="0 0 160 29.938">
  <defs>
    <style>
      .cls-1 {
        fill: #252525;
        fill-rule: evenodd;
      }
    </style>
  </defs>
  <path d="M157.712,4.506 C156.445,4.506 155.432,3.488 155.432,2.244 C155.432,1.008 156.445,-0.015 157.712,-0.015 C158.974,-0.015 159.986,1.008 159.986,2.244 C159.986,3.488 158.974,4.506 157.712,4.506 ZM157.712,0.352 C156.653,0.352 155.795,1.205 155.795,2.244 C155.795,3.294 156.653,4.135 157.712,4.135 C158.765,4.135 159.619,3.294 159.619,2.244 C159.619,1.205 158.765,0.352 157.712,0.352 ZM158.328,2.421 L158.328,2.429 L158.745,2.998 L158.745,3.451 L158.278,3.451 L158.278,2.998 L157.953,2.639 L157.224,2.639 L157.224,3.451 L156.749,3.451 L156.749,1.000 L158.028,1.000 C158.561,1.015 158.774,1.176 158.774,1.729 L158.328,2.421 ZM157.895,1.403 L157.224,1.403 L157.224,2.239 L157.861,2.239 L158.290,1.803 L157.895,1.403 ZM156.528,29.934 L143.983,29.934 C143.983,29.934 135.588,20.342 134.472,19.056 C133.339,20.329 124.814,29.934 124.814,29.934 L112.269,29.934 C112.269,29.934 125.547,15.071 126.464,14.066 C125.594,13.035 114.540,0.035 114.540,0.035 L126.285,0.035 C126.285,0.035 133.280,8.425 134.388,9.756 C135.517,8.437 142.634,0.035 142.634,0.035 L152.437,0.035 L154.262,0.035 C154.262,0.035 143.204,13.035 142.317,14.066 C143.238,15.071 156.528,29.934 156.528,29.934 ZM99.025,24.862 L79.847,24.862 C79.447,25.636 77.218,29.946 77.218,29.946 L67.048,29.946 L82.405,0.089 L96.459,0.089 L111.786,29.946 L101.625,29.946 C101.625,29.946 99.412,25.636 99.025,24.862 ZM89.930,6.842 L88.942,6.842 C88.555,7.616 84.114,16.245 83.134,18.178 L95.729,18.178 C94.738,16.245 90.317,7.616 89.930,6.842 ZM56.820,8.309 L55.075,8.309 C54.616,9.224 44.388,29.943 44.388,29.943 L37.301,29.943 C37.301,29.943 27.069,9.224 26.644,8.309 L24.881,8.309 L24.881,29.943 L16.332,29.943 L16.332,0.085 L31.672,0.085 C31.672,0.085 39.568,15.434 40.859,17.959 C42.151,15.434 50.012,0.085 50.012,0.085 L65.361,0.085 L65.361,29.943 L56.820,29.943 L56.820,8.309 ZM0.013,0.089 L9.637,0.089 L9.637,29.946 L0.013,29.946 L0.013,0.089 Z" class="cls-1"/>
</svg>
