<?xml version="1.0" encoding="utf-8"?>
<!-- Generator: Adobe Illustrator 19.1.0, SVG Export Plug-In . SVG Version: 6.00 Build 0)  -->
<svg version="1.1" id="Layer_1" xmlns="http://www.w3.org/2000/svg" xmlns:xlink="http://www.w3.org/1999/xlink" x="0px" y="0px"
	 viewBox="820 40 100 100" style="enable-background:new 820 40 100 100;" xml:space="preserve">
<style type="text/css">
	.st0{fill:#070752;}
	.st1{fill:#FFFFFF;}
</style>
<g>
	<g>
		<g>
			<path class="st0" d="M823.7,135.9c-0.2,0-0.5-0.1-0.7-0.2c-0.5-0.3-0.8-0.8-0.8-1.3V61.8c0-0.6,0.3-1.1,0.8-1.3
				c0.5-0.3,1.1-0.2,1.6,0.1c0.2,0.2,21.7,15.7,59.5,15.7c0.2,0,18.9,0.2,31.9-3.1c0.4-0.1,0.9,0,1.3,0.3s0.6,0.7,0.6,1.2v45.9
				c0,0.4-0.2,0.9-0.5,1.1c-0.3,0.3-0.8,0.4-1.2,0.3c0,0-3.4-0.6-8.9-1.1c-0.8-0.1-1.4-0.8-1.4-1.6c0.1-0.8,0.8-1.4,1.6-1.4
				c3.3,0.3,5.8,0.6,7.4,0.9V76.6c-13.2,2.9-30,2.7-30.8,2.7c-31.9,0-52.2-10.6-58.9-14.7v67.1c4-2.4,8.4-4.5,13.1-6.3
				c0.8-0.3,1.6,0.1,1.9,0.9c0.3,0.8-0.1,1.6-0.9,1.9c-5.4,2.1-10.4,4.6-14.9,7.5C824.3,135.8,824,135.9,823.7,135.9z"/>
		</g>
	</g>
	<g>
		<g>
			<path class="st0" d="M859.3,131.1c-0.8,0-1.5-0.7-1.5-1.5V121c0-1.4-1.1-2.5-2.5-2.5h-6.1c-1.4,0-2.5,1.1-2.5,2.5v8.6
				c0,0.8-0.7,1.5-1.5,1.5c-0.8,0-1.5-0.7-1.5-1.5V121c0-3,2.5-5.5,5.5-5.5h6.1c3,0,5.5,2.5,5.5,5.5v8.6
				C860.8,130.4,860,131.1,859.3,131.1z"/>
		</g>
		<g>
			<path class="st0" d="M852.2,114.2c-3.5,0-6.4-2.9-6.4-6.4s2.9-6.4,6.4-6.4s6.4,2.9,6.4,6.4S855.8,114.2,852.2,114.2z
				 M852.2,104.3c-1.9,0-3.4,1.5-3.4,3.4s1.5,3.4,3.4,3.4c1.9,0,3.4-1.5,3.4-3.4S854,104.3,852.2,104.3z"/>
		</g>
	</g>
	<g>
		<g>
			<path class="st0" d="M880.3,131.1c-0.8,0-1.5-0.7-1.5-1.5V121c0-1.4-1.1-2.5-2.5-2.5h-6.1c-1.4,0-2.5,1.1-2.5,2.5v8.6
				c0,0.8-0.7,1.5-1.5,1.5c-0.8,0-1.5-0.7-1.5-1.5V121c0-3,2.5-5.5,5.5-5.5h6.1c3,0,5.5,2.5,5.5,5.5v8.6
				C881.8,130.4,881.2,131.1,880.3,131.1z"/>
		</g>
		<g>
			<path class="st0" d="M873.3,114.2c-3.5,0-6.4-2.9-6.4-6.4s2.9-6.4,6.4-6.4s6.4,2.9,6.4,6.4S876.8,114.2,873.3,114.2z
				 M873.3,104.3c-1.9,0-3.4,1.5-3.4,3.4s1.5,3.4,3.4,3.4s3.4-1.5,3.4-3.4S875.2,104.3,873.3,104.3z"/>
		</g>
	</g>
	<g>
		<g>
			<path class="st0" d="M901.3,131.1c-0.8,0-1.5-0.7-1.5-1.5V121c0-1.4-1.1-2.5-2.5-2.5h-6.1c-1.4,0-2.5,1.1-2.5,2.5v8.6
				c0,0.8-0.7,1.5-1.5,1.5s-1.5-0.7-1.5-1.5V121c0-3,2.5-5.5,5.5-5.5h6.1c3,0,5.5,2.5,5.5,5.5v8.6
				C902.8,130.4,902.2,131.1,901.3,131.1z"/>
		</g>
		<g>
			<path class="st0" d="M894.3,114.2c-3.5,0-6.4-2.9-6.4-6.4s2.9-6.4,6.4-6.4s6.4,2.9,6.4,6.4S897.8,114.2,894.3,114.2z
				 M894.3,104.3c-1.9,0-3.4,1.5-3.4,3.4s1.5,3.4,3.4,3.4s3.4-1.5,3.4-3.4S896.2,104.3,894.3,104.3z"/>
		</g>
	</g>
	<g>
		<path class="st1" d="M830.8,60.4c-0.4,0-0.8-0.1-1.1-0.4l-6.6-6.6c-0.3-0.3-0.4-0.7-0.4-1.1s0.2-0.8,0.4-1.1l6.6-6.6
			c0.6-0.6,1.5-0.6,2.1,0c0.6,0.6,0.6,1.5,0,2.1l-5.6,5.6l5.6,5.6c0.6,0.6,0.6,1.5,0,2.1C831.7,60.3,831.3,60.4,830.8,60.4z"/>
	</g>
	<g>
		<path class="st1" d="M909,60.4c-0.4,0-0.8-0.1-1.1-0.4c-0.6-0.6-0.6-1.5,0-2.1l5.6-5.6l-5.6-5.6c-0.6-0.6-0.6-1.5,0-2.1
			c0.6-0.6,1.5-0.6,2.1,0l6.6,6.6c0.3,0.3,0.4,0.7,0.4,1.1s-0.2,0.8-0.4,1.1L910,60C909.8,60.3,909.5,60.4,909,60.4z"/>
	</g>
	<g>
		<path class="st1" d="M915.8,53.8h-91.5c-0.8,0-1.5-0.7-1.5-1.5s0.7-1.5,1.5-1.5h91.5c0.8,0,1.5,0.7,1.5,1.5S916.5,53.8,915.8,53.8
			z"/>
	</g>
</g>
</svg>
