<?xml version="1.0" encoding="utf-8"?>
<!-- Generator: Adobe Illustrator 19.1.0, SVG Export Plug-In . SVG Version: 6.00 Build 0)  -->
<svg version="1.1" id="Layer_1" xmlns="http://www.w3.org/2000/svg" xmlns:xlink="http://www.w3.org/1999/xlink" x="0px" y="0px"
	 viewBox="820 40 100 100" style="enable-background:new 820 40 100 100;" xml:space="preserve">
<style type="text/css">
	.st0{fill:#070752;}
	.st1{fill:#FFFFFF;}
</style>
<g>
	<g>
		<path class="st0" d="M821.5,76.3c-0.5,0-1-0.3-1.3-0.7c-0.4-0.7-0.1-1.6,0.6-2c0.8-0.4,19.6-10.8,49.1-10.9c0,0,0,0,0,0h0.2
			c0,0,0,0,0,0c29.6,0,48.4,10.4,49.1,10.9c0.7,0.4,0.9,1.3,0.6,2c-0.4,0.7-1.3,0.9-2,0.6c-0.2-0.1-19-10.5-47.8-10.5
			c-28.9,0-47.6,10.4-47.8,10.5C822,76.3,821.7,76.3,821.5,76.3z"/>
	</g>
	<g>
		<g>
			<path class="st0" d="M864.9,81.4h-24.5c-0.8,0-1.5-0.7-1.5-1.5c0-0.8,0.7-1.5,1.5-1.5h24.5c0.8,0,1.5,0.7,1.5,1.5
				C866.4,80.8,865.7,81.4,864.9,81.4z"/>
		</g>
		<g>
			<path class="st0" d="M864.9,90.7h-24.5c-0.8,0-1.5-0.7-1.5-1.5c0-0.8,0.7-1.5,1.5-1.5h24.5c0.8,0,1.5,0.7,1.5,1.5
				C866.4,90,865.7,90.7,864.9,90.7z"/>
		</g>
		<g>
			<path class="st0" d="M864.9,99.9h-24.5c-0.8,0-1.5-0.7-1.5-1.5s0.7-1.5,1.5-1.5h24.5c0.8,0,1.5,0.7,1.5,1.5
				S865.7,99.9,864.9,99.9z"/>
		</g>
		<g>
			<path class="st0" d="M864.9,109.1h-24.5c-0.8,0-1.5-0.7-1.5-1.5c0-0.8,0.7-1.5,1.5-1.5h24.5c0.8,0,1.5,0.7,1.5,1.5
				C866.4,108.5,865.7,109.1,864.9,109.1z"/>
		</g>
		<g>
			<path class="st0" d="M864.9,118.4h-24.5c-0.8,0-1.5-0.7-1.5-1.5c0-0.8,0.7-1.5,1.5-1.5h24.5c0.8,0,1.5,0.7,1.5,1.5
				C866.4,117.7,865.7,118.4,864.9,118.4z"/>
		</g>
		<g>
			<path class="st0" d="M899.7,81.4h-24.5c-0.8,0-1.5-0.7-1.5-1.5c0-0.8,0.7-1.5,1.5-1.5h24.5c0.8,0,1.5,0.7,1.5,1.5
				C901.1,80.8,900.5,81.4,899.7,81.4z"/>
		</g>
		<g>
			<path class="st0" d="M899.7,90.7h-24.5c-0.8,0-1.5-0.7-1.5-1.5c0-0.8,0.7-1.5,1.5-1.5h24.5c0.8,0,1.5,0.7,1.5,1.5
				C901.1,90,900.5,90.7,899.7,90.7z"/>
		</g>
		<g>
			<path class="st0" d="M899.7,99.9h-24.5c-0.8,0-1.5-0.7-1.5-1.5s0.7-1.5,1.5-1.5h24.5c0.8,0,1.5,0.7,1.5,1.5
				S900.5,99.9,899.7,99.9z"/>
		</g>
		<g>
			<path class="st0" d="M899.7,109.1h-24.5c-0.8,0-1.5-0.7-1.5-1.5c0-0.8,0.7-1.5,1.5-1.5h24.5c0.8,0,1.5,0.7,1.5,1.5
				C901.1,108.5,900.5,109.1,899.7,109.1z"/>
		</g>
		<g>
			<path class="st0" d="M899.7,118.4h-24.5c-0.8,0-1.5-0.7-1.5-1.5c0-0.8,0.7-1.5,1.5-1.5h24.5c0.8,0,1.5,0.7,1.5,1.5
				C901.1,117.7,900.5,118.4,899.7,118.4z"/>
		</g>
	</g>
	<g>
		<circle class="st1" cx="870" cy="93.5" r="12.6"/>
	</g>
	<g>
		<g>
			<path class="st1" d="M880.7,84.7c-0.3,0-0.6-0.1-0.8-0.4c-0.3-0.4-0.3-1,0.2-1.4l1.5-1.2c0.4-0.3,1-0.3,1.4,0.2
				c0.3,0.4,0.3,1-0.2,1.4l-1.5,1.2C881.1,84.7,880.9,84.7,880.7,84.7z M885.3,81.2c-0.3,0-0.6-0.1-0.8-0.4c-0.3-0.4-0.3-1,0.2-1.4
				l1.5-1.2c0.4-0.3,1-0.3,1.4,0.2c0.3,0.4,0.3,1-0.2,1.4l-1.5,1.2C885.7,81.1,885.5,81.2,885.3,81.2z M889.9,77.6
				c-0.3,0-0.6-0.1-0.8-0.4c-0.3-0.4-0.3-1,0.2-1.4l1.5-1.2c0.4-0.3,1-0.3,1.4,0.2c0.3,0.4,0.3,1-0.2,1.4l-1.5,1.2
				C890.3,77.5,890.1,77.6,889.9,77.6z M894.5,74c-0.3,0-0.6-0.1-0.8-0.4c-0.3-0.4-0.3-1,0.2-1.4l1.5-1.2c0.4-0.3,1-0.3,1.4,0.2
				c0.3,0.4,0.3,1-0.2,1.4l-1.5,1.2C894.9,73.9,894.7,74,894.5,74z M899.1,70.4c-0.3,0-0.6-0.1-0.8-0.4c-0.3-0.4-0.3-1,0.2-1.4
				l1.5-1.2c0.4-0.3,1-0.3,1.4,0.2c0.3,0.4,0.3,1-0.2,1.4l-1.5,1.2C899.5,70.3,899.3,70.4,899.1,70.4z M903.7,66.8
				c-0.3,0-0.6-0.1-0.8-0.4c-0.3-0.4-0.3-1,0.2-1.4l1.5-1.2c0.4-0.3,1-0.3,1.4,0.2c0.3,0.4,0.3,1-0.2,1.4l-1.5,1.2
				C904.1,66.8,903.9,66.8,903.7,66.8z M908.3,63.3c-0.3,0-0.6-0.1-0.8-0.4c-0.3-0.4-0.3-1,0.2-1.4l1.5-1.2c0.4-0.3,1-0.3,1.4,0.2
				c0.3,0.4,0.3,1-0.2,1.4l-1.5,1.2C908.7,63.2,908.5,63.3,908.3,63.3z M912.9,59.7c-0.3,0-0.6-0.1-0.8-0.4c-0.3-0.4-0.3-1,0.2-1.4
				l1.5-1.2c0.4-0.3,1-0.3,1.4,0.2c0.3,0.4,0.3,1-0.2,1.4l-1.5,1.2C913.3,59.6,913.1,59.7,912.9,59.7z"/>
		</g>
		<g>
			<line class="st1" x1="907.4" y1="128.8" x2="880.8" y2="103.5"/>
			<path class="st1" d="M907.4,129.7c-0.2,0-0.5-0.1-0.7-0.3l-1.4-1.3c-0.4-0.4-0.4-1,0-1.4c0.4-0.4,1-0.4,1.4,0l1.4,1.3
				c0.4,0.4,0.4,1,0,1.4C907.9,129.6,907.6,129.7,907.4,129.7z M903.2,125.7c-0.2,0-0.5-0.1-0.7-0.3l-1.4-1.3c-0.4-0.4-0.4-1,0-1.4
				c0.4-0.4,1-0.4,1.4,0l1.4,1.3c0.4,0.4,0.4,1,0,1.4C903.7,125.6,903.4,125.7,903.2,125.7z M898.9,121.7c-0.2,0-0.5-0.1-0.7-0.3
				l-1.4-1.3c-0.4-0.4-0.4-1,0-1.4c0.4-0.4,1-0.4,1.4,0l1.4,1.3c0.4,0.4,0.4,1,0,1.4C899.4,121.6,899.2,121.7,898.9,121.7z
				 M894.7,117.7c-0.2,0-0.5-0.1-0.7-0.3l-1.4-1.3c-0.4-0.4-0.4-1,0-1.4c0.4-0.4,1-0.4,1.4,0l1.4,1.3c0.4,0.4,0.4,1,0,1.4
				C895.2,117.6,895,117.7,894.7,117.7z M890.5,113.7c-0.2,0-0.5-0.1-0.7-0.3l-1.4-1.3c-0.4-0.4-0.4-1,0-1.4c0.4-0.4,1-0.4,1.4,0
				l1.4,1.3c0.4,0.4,0.4,1,0,1.4C891,113.6,890.7,113.7,890.5,113.7z M886.2,109.6c-0.2,0-0.5-0.1-0.7-0.3l-1.4-1.3
				c-0.4-0.4-0.4-1,0-1.4c0.4-0.4,1-0.4,1.4,0l1.4,1.3c0.4,0.4,0.4,1,0,1.4C886.8,109.5,886.5,109.6,886.2,109.6z M882,105.6
				c-0.2,0-0.5-0.1-0.7-0.3l-1.2-1.2c-0.4-0.4-0.4-1,0-1.4c0.4-0.4,1-0.4,1.4,0l1.2,1.2c0.4,0.4,0.4,1,0,1.4
				C882.5,105.5,882.3,105.6,882,105.6z"/>
		</g>
		<g>
			<path class="st1" d="M859.4,84.7c-0.2,0-0.4-0.1-0.6-0.2l-1.5-1.2c-0.4-0.3-0.5-0.9-0.2-1.4c0.3-0.4,0.9-0.5,1.4-0.2L860,83
				c0.4,0.3,0.5,0.9,0.2,1.4C859.9,84.6,859.6,84.7,859.4,84.7z M854.8,81.2c-0.2,0-0.4-0.1-0.6-0.2l-1.5-1.2
				c-0.4-0.3-0.5-0.9-0.2-1.4c0.3-0.4,0.9-0.5,1.4-0.2l1.5,1.2c0.4,0.3,0.5,0.9,0.2,1.4C855.3,81,855,81.2,854.8,81.2z M850.1,77.6
				c-0.2,0-0.4-0.1-0.6-0.2l-1.5-1.2c-0.4-0.3-0.5-0.9-0.2-1.4c0.3-0.4,0.9-0.5,1.4-0.2l1.5,1.2c0.4,0.3,0.5,0.9,0.2,1.4
				C850.7,77.4,850.4,77.6,850.1,77.6z M845.5,74c-0.2,0-0.4-0.1-0.6-0.2l-1.5-1.2c-0.4-0.3-0.5-0.9-0.2-1.4
				c0.3-0.4,0.9-0.5,1.4-0.2l1.5,1.2c0.4,0.3,0.5,0.9,0.2,1.4C846.1,73.9,845.8,74,845.5,74z M840.9,70.4c-0.2,0-0.4-0.1-0.6-0.2
				l-1.5-1.2c-0.4-0.3-0.5-0.9-0.2-1.4c0.3-0.4,0.9-0.5,1.4-0.2l1.5,1.2c0.4,0.3,0.5,0.9,0.2,1.4C841.5,70.3,841.2,70.4,840.9,70.4z
				 M836.3,66.8c-0.2,0-0.4-0.1-0.6-0.2l-1.5-1.2c-0.4-0.3-0.5-0.9-0.2-1.4c0.3-0.4,0.9-0.5,1.4-0.2l1.5,1.2
				c0.4,0.3,0.5,0.9,0.2,1.4C836.9,66.7,836.6,66.8,836.3,66.8z M831.7,63.3c-0.2,0-0.4-0.1-0.6-0.2l-1.5-1.2
				c-0.4-0.3-0.5-0.9-0.2-1.4c0.3-0.4,0.9-0.5,1.4-0.2l1.5,1.2c0.4,0.3,0.5,0.9,0.2,1.4C832.3,63.1,832,63.3,831.7,63.3z
				 M827.1,59.7c-0.2,0-0.4-0.1-0.6-0.2l-1.5-1.2c-0.4-0.3-0.5-0.9-0.2-1.4c0.3-0.4,0.9-0.5,1.4-0.2l1.5,1.2
				c0.4,0.3,0.5,0.9,0.2,1.4C827.7,59.5,827.4,59.7,827.1,59.7z"/>
		</g>
		<g>
			<line class="st1" x1="832.6" y1="128.8" x2="859.2" y2="103.5"/>
			<path class="st1" d="M832.6,129.7c-0.3,0-0.5-0.1-0.7-0.3c-0.4-0.4-0.4-1,0-1.4l1.4-1.3c0.4-0.4,1-0.4,1.4,0c0.4,0.4,0.4,1,0,1.4
				l-1.4,1.3C833.1,129.6,832.9,129.7,832.6,129.7z M836.9,125.7c-0.3,0-0.5-0.1-0.7-0.3c-0.4-0.4-0.4-1,0-1.4l1.4-1.3
				c0.4-0.4,1-0.4,1.4,0c0.4,0.4,0.4,1,0,1.4l-1.4,1.3C837.4,125.6,837.1,125.7,836.9,125.7z M841.1,121.7c-0.3,0-0.5-0.1-0.7-0.3
				c-0.4-0.4-0.4-1,0-1.4l1.4-1.3c0.4-0.4,1-0.4,1.4,0c0.4,0.4,0.4,1,0,1.4l-1.4,1.3C841.6,121.6,841.3,121.7,841.1,121.7z
				 M845.3,117.7c-0.3,0-0.5-0.1-0.7-0.3c-0.4-0.4-0.4-1,0-1.4l1.4-1.3c0.4-0.4,1-0.4,1.4,0c0.4,0.4,0.4,1,0,1.4l-1.4,1.3
				C845.8,117.6,845.6,117.7,845.3,117.7z M849.6,113.7c-0.3,0-0.5-0.1-0.7-0.3c-0.4-0.4-0.4-1,0-1.4l1.4-1.3c0.4-0.4,1-0.4,1.4,0
				c0.4,0.4,0.4,1,0,1.4l-1.4,1.3C850,113.6,849.8,113.7,849.6,113.7z M853.8,109.6c-0.3,0-0.5-0.1-0.7-0.3c-0.4-0.4-0.4-1,0-1.4
				l1.4-1.3c0.4-0.4,1-0.4,1.4,0c0.4,0.4,0.4,1,0,1.4l-1.4,1.3C854.3,109.6,854,109.6,853.8,109.6z M858,105.6
				c-0.3,0-0.5-0.1-0.7-0.3c-0.4-0.4-0.4-1,0-1.4l1.2-1.2c0.4-0.4,1-0.4,1.4,0c0.4,0.4,0.4,1,0,1.4l-1.2,1.2
				C858.5,105.5,858.3,105.6,858,105.6z"/>
		</g>
		<g>
			<line class="st1" x1="869.8" y1="54" x2="869.8" y2="79"/>
			<path class="st1" d="M869.8,80c-0.5,0-1-0.4-1-1v-1.7c0-0.5,0.4-1,1-1s1,0.4,1,1V79C870.8,79.6,870.3,80,869.8,80z M869.8,74.4
				c-0.5,0-1-0.4-1-1v-1.9c0-0.5,0.4-1,1-1s1,0.4,1,1v1.9C870.8,74,870.3,74.4,869.8,74.4z M869.8,68.6c-0.5,0-1-0.4-1-1v-1.9
				c0-0.5,0.4-1,1-1s1,0.4,1,1v1.9C870.8,68.1,870.3,68.6,869.8,68.6z M869.8,62.7c-0.5,0-1-0.4-1-1v-1.9c0-0.5,0.4-1,1-1s1,0.4,1,1
				v1.9C870.8,62.3,870.3,62.7,869.8,62.7z M869.8,56.9c-0.5,0-1-0.4-1-1V54c0-0.5,0.4-1,1-1s1,0.4,1,1v1.9
				C870.8,56.5,870.3,56.9,869.8,56.9z"/>
		</g>
	</g>
	<g>
		<circle class="st1" cx="824.8" cy="56.7" r="4.8"/>
	</g>
	<g>
		<circle class="st1" cx="831.3" cy="129.9" r="4.8"/>
	</g>
	<g>
		<circle class="st1" cx="908.3" cy="129.9" r="4.8"/>
	</g>
	<g>
		<circle class="st1" cx="915" cy="56.7" r="4.8"/>
	</g>
	<g>
		<circle class="st1" cx="869.8" cy="47.5" r="4.8"/>
	</g>
</g>
</svg>
